
<svg version="1.1" id="Ebene_1" xmlns="http://www.w3.org/2000/svg" xmlns:xlink="http://www.w3.org/1999/xlink" x="0px" y="0px"
	 width="500px" height="500px" viewBox="0 0 500 500" enable-background="new 0 0 500 500" xml:space="preserve">
<g id="layer9" transform="translate(-194.96875,-276.5625)" >
	<g id="g4469">
		<path id="path3857"  fill="#3B5998" d="M305.969,342.063c-59.924,0-108.5,48.576-108.5,108.5
			c0,59.924,48.576,108.5,108.5,108.5c1.539,0,3.065-0.038,4.589-0.102v-79.199h-16.367v-27.295h16.367v-16.384
			c0-22.268,9.222-35.521,35.453-35.521h21.839v27.312h-13.647c-10.213,0-10.894,3.809-10.894,10.929l-0.034,13.665h24.728
			l-2.889,27.295h-21.839v72.724c41.546-15.213,71.194-55.107,71.194-101.923C414.469,390.638,365.893,342.063,305.969,342.063z"/>
		<path id="path3857-4"  fill="#FFFFFF" d="M346.013,400.571c-26.23,0-35.453,13.252-35.453,35.521
			v16.384h-16.367v27.294h16.367v79.2c11.452-0.478,22.45-2.717,32.717-6.476V479.77h21.838l2.89-27.294h-24.728l0.034-13.665
			c0-7.12,0.681-10.928,10.894-10.928h13.647v-27.312H346.013L346.013,400.571z"/>
	</g>
</g>
<circle id="schadow_x5F_back_x5F_tp" fill="#7C7C7C" cx="308.984" cy="174.521" r="108.81"/>
<radialGradient id="back_x5F_tp_1_" cx="898.0117" cy="-318.2686" r="175.3025" gradientTransform="matrix(0.6207 0 0 -0.6207 -249.4961 -25.5605)" gradientUnits="userSpaceOnUse">
	<stop  offset="0" style="stop-color:#333333"/>
	<stop  offset="1" style="stop-color:#FFFFFF"/>
</radialGradient>
<circle id="back_x5F_tp" fill="url(#back_x5F_tp_1_)" stroke="#FFFFFF" stroke-miterlimit="10" cx="307.899" cy="171.989" r="108.81"/>
<circle id="blau" fill="#005E9E" cx="310.25" cy="172.893" r="75.344"/>
<circle id="schadow_x5F_back_x5F_3" fill="#5E5D5D" cx="389.742" cy="101.981" r="58.249"/>
<radialGradient id="back_x5F_3_1_" cx="976.8906" cy="-558.7256" r="175.3423" gradientTransform="matrix(0.3322 0 0 -0.3322 64.781 -85.0745)" gradientUnits="userSpaceOnUse">
	<stop  offset="0" style="stop-color:#333333"/>
	<stop  offset="1" style="stop-color:#FFFFFF"/>
</radialGradient>
<circle id="back_x5F_3" fill="url(#back_x5F_3_1_)" stroke="#FFFFFF" stroke-miterlimit="10" cx="389.305" cy="100.534" r="58.249"/>
<circle id="orange" fill="#EB7900" cx="391.202" cy="101.528" r="40.521"/>
<g id="tp">
	<g>
		<path fill="#FFFFFF" d="M295.793,150.488v11.756h-11.115v22.461c0,4.547,0.105,7.199,0.318,7.952
			c0.212,0.752,0.695,1.374,1.447,1.862c0.752,0.49,1.669,0.734,2.75,0.734c1.506,0,3.686-0.473,6.542-1.418l1.389,11.442
			c-3.783,1.471-8.066,2.207-12.852,2.207c-2.933,0-5.578-0.447-7.931-1.338c-2.355-0.892-4.081-2.048-5.18-3.465
			c-1.101-1.417-1.862-3.332-2.287-5.746c-0.348-1.714-0.521-5.179-0.521-10.394v-24.3h-7.468v-11.754h7.468v-11.074l16.325-8.607
			v19.681L295.793,150.488L295.793,150.488L295.793,150.488L295.793,150.488z"/>
		<path fill="#FFFFFF" d="M306.618,150.488h15.167v8.188c1.968-2.799,4.631-5.073,7.99-6.823c3.356-1.749,7.082-2.624,11.174-2.624
			c7.138,0,13.196,2.537,18.175,7.61c4.979,5.074,7.468,12.142,7.468,21.203c0,9.307-2.508,16.542-7.525,21.7
			c-5.018,5.162-11.096,7.741-18.232,7.741c-3.397,0-6.477-0.612-9.236-1.836c-2.76-1.226-5.664-3.324-8.713-6.298v28.076h-16.267
			V150.488z M322.712,177.411c0,6.264,1.37,10.891,4.109,13.882c2.739,2.991,6.079,4.486,10.016,4.486
			c3.781,0,6.927-1.373,9.436-4.119c2.509-2.747,3.763-7.252,3.763-13.516c0-5.842-1.294-10.182-3.879-13.016
			c-2.586-2.833-5.79-4.25-9.61-4.25c-3.975,0-7.274,1.39-9.898,4.172C324.023,167.833,322.712,171.953,322.712,177.411z"/>
	</g>
</g>
<g id="back">
	<g>
		<path fill="#E5E5E5" d="M373.936,109.842l9.434-0.954c0.3,2.006,1.111,3.539,2.428,4.6c1.319,1.061,2.915,1.59,4.787,1.59
			c2.014,0,3.704-0.637,5.081-1.91c1.376-1.273,2.065-2.988,2.065-5.149c0-2.044-0.66-3.664-1.978-4.859
			c-1.32-1.196-2.926-1.794-4.822-1.794c-1.249,0-2.74,0.203-4.477,0.608l1.076-6.625c2.638,0.059,4.65-0.419,6.037-1.432
			c1.388-1.012,2.079-2.357,2.079-4.035c0-1.427-0.508-2.564-1.526-3.413c-1.016-0.849-2.368-1.273-4.058-1.273
			c-1.666,0-3.088,0.483-4.268,1.447c-1.177,0.965-1.896,2.372-2.15,4.223l-8.982-1.273c0.626-2.564,1.567-4.613,2.829-6.146
			c1.258-1.533,3.015-2.738,5.271-3.616c2.254-0.877,4.781-1.315,7.579-1.315c4.786,0,8.625,1.273,11.516,3.817
			c2.382,2.083,3.573,4.436,3.573,7.058c0,3.722-2.439,6.692-7.316,8.909c2.913,0.521,5.243,1.688,6.988,3.5
			c1.744,1.813,2.617,4.002,2.617,6.566c0,3.722-1.629,6.894-4.892,9.517c-3.261,2.623-7.317,3.934-12.175,3.934
			c-4.603,0-8.418-1.104-11.447-3.313C376.178,116.297,374.421,113.41,373.936,109.842z"/>
	</g>
</g>
<text transform="matrix(1 0 0 1 42.4976 392.1953)" font-family="'MyriadPro-Regular'" font-size="97.798">FB Plugins</text>
</svg>
