<?xml version="1.0" encoding="utf-8"?>
<!-- Generator: Adobe Illustrator 13.0.0, SVG Export Plug-In . SVG Version: 6.00 Build 14948)  -->
<!DOCTYPE svg PUBLIC "-//W3C//DTD SVG 1.1//EN" "http://www.w3.org/Graphics/SVG/1.1/DTD/svg11.dtd">
<svg version="1.1" id="Ebene_1" xmlns="http://www.w3.org/2000/svg" xmlns:xlink="http://www.w3.org/1999/xlink" x="0px" y="0px"
	 width="500px" height="500px" viewBox="0 0 500 500" enable-background="new 0 0 500 500" xml:space="preserve">
<circle id="schadow_x5F_back_x5F_tp" fill="#7C7C7C" cx="264.242" cy="201.06" r="160.271"/>
<radialGradient id="back_x5F_tp_1_" cx="658.0127" cy="492.3594" r="258.21" gradientTransform="matrix(0.6207 0 0 0.6207 -145.7832 -108.2769)" gradientUnits="userSpaceOnUse">
	<stop  offset="0" style="stop-color:#333333"/>
	<stop  offset="1" style="stop-color:#FFFFFF"/>
</radialGradient>
<circle id="back_x5F_tp" fill="url(#back_x5F_tp_1_)" stroke="#FFFFFF" stroke-miterlimit="10" cx="262.645" cy="197.331" r="160.271"/>
<circle id="blau" fill="#005E9E" cx="266.107" cy="198.662" r="110.977"/>
<circle id="schadow_x5F_back_x5F_3" fill="#5E5D5D" cx="383.194" cy="94.214" r="85.797"/>
<radialGradient id="back_x5F_3_1_" cx="722.082" cy="426.6484" r="258.2686" gradientTransform="matrix(0.3322 0 0 0.3322 142.6731 -49.6506)" gradientUnits="userSpaceOnUse">
	<stop  offset="0" style="stop-color:#333333"/>
	<stop  offset="1" style="stop-color:#FFFFFF"/>
</radialGradient>
<circle id="back_x5F_3" fill="url(#back_x5F_3_1_)" stroke="#FFFFFF" stroke-miterlimit="10" cx="382.549" cy="92.082" r="85.797"/>
<circle id="orange" fill="#EB7900" cx="385.345" cy="93.547" r="59.685"/>
<g id="tp">
	<g>
		<path fill="#FFFFFF" d="M244.812,165.661v17.316H228.44v33.085c0,6.698,0.156,10.603,0.469,11.712
			c0.312,1.108,1.024,2.023,2.132,2.743c1.108,0.722,2.458,1.081,4.051,1.081c2.217,0,5.428-0.696,9.635-2.088l2.046,16.853
			c-5.572,2.166-11.882,3.25-18.929,3.25c-4.32,0-8.216-0.658-11.682-1.971c-3.469-1.314-6.011-3.016-7.63-5.104
			c-1.621-2.088-2.743-4.908-3.368-8.463c-0.512-2.525-0.768-7.628-0.768-15.309v-35.792h-11V165.66h11v-16.311l24.046-12.677
			v28.988L244.812,165.661L244.812,165.661L244.812,165.661L244.812,165.661z"/>
		<path fill="#FFFFFF" d="M260.757,165.661h22.341v12.06c2.897-4.123,6.821-7.472,11.769-10.05
			c4.944-2.576,10.431-3.865,16.457-3.865c10.515,0,19.438,3.737,26.772,11.209c7.333,7.474,10.999,17.885,10.999,31.23
			c0,13.708-3.694,24.365-11.084,31.963c-7.391,7.603-16.344,11.402-26.856,11.402c-5.004,0-9.54-0.902-13.604-2.705
			c-4.064-1.806-8.343-4.896-12.833-9.276v41.354h-23.961V165.661z M284.463,205.317c0,9.226,2.018,16.042,6.053,20.447
			c4.035,4.406,8.953,6.608,14.752,6.608c5.569,0,10.203-2.022,13.898-6.067c3.695-4.046,5.542-10.681,5.542-19.907
			c0-8.605-1.906-14.997-5.714-19.172c-3.809-4.173-8.527-6.261-14.155-6.261c-5.854,0-10.715,2.047-14.579,6.145
			C286.395,191.21,284.463,197.278,284.463,205.317z"/>
	</g>
</g>
<g id="back">
	<g>
		<path fill="#E5E5E5" d="M359.911,105.793l13.896-1.406c0.442,2.955,1.637,5.213,3.576,6.775c1.943,1.562,4.293,2.343,7.051,2.343
			c2.966,0,5.456-0.938,7.484-2.813c2.027-1.875,3.042-4.402,3.042-7.584c0-3.011-0.972-5.396-2.913-7.158
			c-1.944-1.761-4.31-2.642-7.103-2.642c-1.839,0-4.036,0.299-6.593,0.895l1.585-9.757c3.885,0.086,6.849-0.617,8.892-2.109
			c2.044-1.491,3.063-3.472,3.063-5.943c0-2.101-0.748-3.777-2.248-5.027c-1.497-1.25-3.489-1.875-5.978-1.875
			c-2.453,0-4.548,0.711-6.285,2.131c-1.734,1.421-2.793,3.494-3.167,6.22l-13.231-1.875c0.922-3.777,2.309-6.795,4.166-9.053
			c1.854-2.258,4.441-4.033,7.764-5.326c3.32-1.292,7.042-1.938,11.163-1.938c7.051,0,12.705,1.875,16.963,5.623
			c3.508,3.068,5.263,6.534,5.263,10.396c0,5.482-3.593,9.857-10.778,13.123c4.292,0.767,7.724,2.486,10.294,5.155
			c2.569,2.67,3.855,5.895,3.855,9.671c0,5.482-2.399,10.155-7.205,14.018c-4.803,3.863-10.778,5.794-17.933,5.794
			c-6.779,0-12.399-1.626-16.86-4.879C363.214,115.301,360.626,111.048,359.911,105.793z"/>
	</g>
</g>
<text transform="matrix(1 0 0 1 44.4976 433.1953)" font-family="'MyriadPro-Regular'" font-size="97.798">Social </text>
<text transform="matrix(1 0 0 1 304.0488 433.1953)" font-family="'MyriadPro-Regular'" font-size="60">Shares</text>
</svg>
